<svg width="1195" height="146" viewBox="0 0 1195 146" fill="none" xmlns="http://www.w3.org/2000/svg">
<g opacity="0.6">
<path d="M1173.73 141.89C1184.33 141.89 1192.96 133.165 1192.96 122.453C1192.96 111.742 1184.33 103.017 1173.73 103.017L1173.73 141.89Z" fill="white"/>
<path d="M1143.73 141.89C1154.33 141.89 1162.96 133.165 1162.96 122.453C1162.96 111.742 1154.33 103.017 1143.73 103.017L1143.73 141.89Z" fill="white"/>
<path d="M1113.73 141.89C1124.33 141.89 1132.96 133.165 1132.96 122.453C1132.96 111.742 1124.33 103.017 1113.73 103.017L1113.73 141.89Z" fill="white"/>
</g>
<g opacity="0.6" clip-path="url(#clip0_2689_474)">
<path d="M72.5498 0C32.4434 0 0 32.4434 0 72.5498C0 112.557 32.4434 145.1 72.5498 145.1C112.557 145.1 145.1 112.656 145.1 72.5498C145 32.4434 112.557 0 72.5498 0ZM72.5498 140.422C35.0309 140.422 4.67742 110.069 4.67742 72.5498C4.67742 35.0309 35.0309 4.67742 72.5498 4.67742C110.069 4.67742 140.422 35.0309 140.422 72.5498C140.422 109.969 109.969 140.422 72.5498 140.422Z" fill="white"/>
<path d="M72.5493 15.625C41.2006 15.625 15.7236 41.102 15.7236 72.4507C15.7236 103.799 41.2006 129.276 72.5493 129.276C103.898 129.276 129.375 103.899 129.375 72.5502C129.375 41.102 103.898 15.625 72.5493 15.625ZM72.5493 120.618C45.9776 120.618 24.3818 99.0224 24.3818 72.4507C24.3818 45.8789 45.9776 24.2832 72.5493 24.2832C99.121 24.2832 120.717 45.8789 120.717 72.4507C120.717 99.0224 99.121 120.618 72.5493 120.618Z" fill="white"/>
<path d="M72.5503 40.6035C54.9353 40.6035 40.6045 54.9343 40.6045 72.5493C40.6045 90.1642 54.8358 104.495 72.5503 104.495C90.1652 104.495 104.496 90.1642 104.496 72.5493C104.397 54.9343 90.1652 40.6035 72.5503 40.6035ZM72.5503 89.6666C63.0959 89.6666 55.4329 82.0036 55.4329 72.5493C55.4329 63.0949 63.0959 55.4319 72.5503 55.4319C82.0046 55.4319 89.6676 63.0949 89.6676 72.5493C89.6676 82.0036 82.0046 89.6666 72.5503 89.6666Z" fill="white"/>
</g>
<defs>
<clipPath id="clip0_2689_474">
<rect width="145" height="145" fill="white"/>
</clipPath>
</defs>
</svg>
